<svg width="964" height="98" viewBox="0 0 964 98" fill="none" xmlns="http://www.w3.org/2000/svg">
<path d="M0.5 93C0.5 95.4853 2.51472 97.5 5 97.5H959C961.485 97.5 963.5 95.4853 963.5 93V5C963.5 2.51472 961.485 0.5 959 0.5H5.00001C2.51473 0.5 0.5 2.51472 0.5 5V93Z" fill="white"/>
<path d="M322 46.4374C324.123 46.4374 325.844 44.7165 325.844 42.5936C325.844 40.4708 324.123 38.7499 322 38.7499C319.877 38.7499 318.156 40.4708 318.156 42.5936C318.156 44.7165 319.877 46.4374 322 46.4374Z" fill="#6785C1" fill-opacity="0.75"/>
<path d="M322 23.3749C316.598 23.3746 311.415 25.5063 307.576 29.3065C303.738 33.1068 301.554 38.2685 301.5 43.6699C301.5 57.7124 319.566 73.3436 320.334 74.0099C320.799 74.4069 321.389 74.625 322 74.625C322.611 74.625 323.201 74.4069 323.666 74.0099C324.562 73.3436 342.5 57.7124 342.5 43.6699C342.446 38.2685 340.262 33.1068 336.424 29.3065C332.585 25.5063 327.402 23.3746 322 23.3749ZM322 51.5624C320.226 51.5624 318.492 51.0364 317.017 50.0509C315.542 49.0654 314.393 47.6646 313.714 46.0258C313.035 44.387 312.858 42.5837 313.204 40.8439C313.55 39.1041 314.404 37.5061 315.658 36.2518C316.912 34.9975 318.511 34.1433 320.25 33.7972C321.99 33.4511 323.793 33.6288 325.432 34.3076C327.071 34.9864 328.472 36.136 329.457 37.6109C330.443 39.0858 330.969 40.8198 330.969 42.5936C330.969 44.9723 330.024 47.2535 328.342 48.9355C326.66 50.6175 324.379 51.5624 322 51.5624Z" fill="#6785C1" fill-opacity="0.75"/>
<path d="M377.686 33.2808L374.155 43H372.712L376.777 32.3359H377.708L377.686 33.2808ZM380.645 43L377.107 33.2808L377.085 32.3359H378.015L382.095 43H380.645ZM380.461 39.0522V40.2095H374.47V39.0522H380.461ZM385.361 41.7769L387.529 35.0752H388.914L386.064 43H385.156L385.361 41.7769ZM383.552 35.0752L385.786 41.8135L385.94 43H385.032L382.161 35.0752H383.552ZM389.448 42.2822C389.448 42.0527 389.519 41.8599 389.661 41.7036C389.807 41.5425 390.017 41.4619 390.291 41.4619C390.564 41.4619 390.771 41.5425 390.913 41.7036C391.06 41.8599 391.133 42.0527 391.133 42.2822C391.133 42.5068 391.06 42.6973 390.913 42.8535C390.771 43.0098 390.564 43.0879 390.291 43.0879C390.017 43.0879 389.807 43.0098 389.661 42.8535C389.519 42.6973 389.448 42.5068 389.448 42.2822ZM397.307 32.3359H400.837C401.638 32.3359 402.314 32.458 402.866 32.7021C403.423 32.9463 403.845 33.3076 404.133 33.7861C404.426 34.2598 404.573 34.8433 404.573 35.5366C404.573 36.0249 404.473 36.4717 404.272 36.877C404.077 37.2773 403.794 37.6191 403.423 37.9023C403.057 38.1807 402.617 38.3882 402.104 38.5249L401.709 38.6787H398.391L398.376 37.5288H400.881C401.389 37.5288 401.812 37.4409 402.148 37.2651C402.485 37.0845 402.739 36.8428 402.91 36.54C403.081 36.2373 403.167 35.9028 403.167 35.5366C403.167 35.1265 403.086 34.7676 402.925 34.46C402.764 34.1523 402.51 33.9155 402.163 33.7495C401.821 33.5786 401.379 33.4932 400.837 33.4932H398.721V43H397.307V32.3359ZM403.54 43L400.947 38.166L402.419 38.1587L405.049 42.9121V43H403.54ZM405.986 39.1255V38.957C405.986 38.3857 406.069 37.856 406.235 37.3677C406.401 36.8745 406.641 36.4473 406.953 36.0859C407.266 35.7197 407.644 35.4365 408.088 35.2363C408.533 35.0312 409.031 34.9287 409.583 34.9287C410.139 34.9287 410.64 35.0312 411.084 35.2363C411.533 35.4365 411.914 35.7197 412.227 36.0859C412.544 36.4473 412.786 36.8745 412.952 37.3677C413.118 37.856 413.201 38.3857 413.201 38.957V39.1255C413.201 39.6968 413.118 40.2266 412.952 40.7148C412.786 41.2031 412.544 41.6304 412.227 41.9966C411.914 42.3579 411.536 42.6411 411.091 42.8462C410.652 43.0464 410.154 43.1465 409.597 43.1465C409.041 43.1465 408.54 43.0464 408.096 42.8462C407.651 42.6411 407.271 42.3579 406.953 41.9966C406.641 41.6304 406.401 41.2031 406.235 40.7148C406.069 40.2266 405.986 39.6968 405.986 39.1255ZM407.341 38.957V39.1255C407.341 39.521 407.388 39.8945 407.48 40.2461C407.573 40.5928 407.712 40.9004 407.898 41.1689C408.088 41.4375 408.325 41.6499 408.608 41.8062C408.892 41.9575 409.221 42.0332 409.597 42.0332C409.968 42.0332 410.293 41.9575 410.571 41.8062C410.854 41.6499 411.089 41.4375 411.274 41.1689C411.46 40.9004 411.599 40.5928 411.692 40.2461C411.79 39.8945 411.838 39.521 411.838 39.1255V38.957C411.838 38.5664 411.79 38.1978 411.692 37.8511C411.599 37.4995 411.458 37.1895 411.267 36.9209C411.082 36.6475 410.847 36.4326 410.564 36.2764C410.286 36.1201 409.958 36.042 409.583 36.042C409.211 36.042 408.884 36.1201 408.601 36.2764C408.323 36.4326 408.088 36.6475 407.898 36.9209C407.712 37.1895 407.573 37.4995 407.48 37.8511C407.388 38.1978 407.341 38.5664 407.341 38.957ZM416.372 31.75V43H415.01V31.75H416.372ZM420.569 43H419.214V34.2402C419.214 33.6689 419.316 33.188 419.521 32.7974C419.731 32.4019 420.032 32.104 420.422 31.9038C420.813 31.6987 421.277 31.5962 421.814 31.5962C421.97 31.5962 422.126 31.606 422.283 31.6255C422.444 31.645 422.6 31.6743 422.751 31.7134L422.678 32.8193C422.576 32.7949 422.458 32.7778 422.327 32.7681C422.2 32.7583 422.073 32.7534 421.946 32.7534C421.658 32.7534 421.409 32.812 421.199 32.9292C420.994 33.0415 420.837 33.2075 420.73 33.4272C420.623 33.647 420.569 33.918 420.569 34.2402V43ZM422.253 35.0752V36.1152H417.961V35.0752H422.253ZM430.493 39.7773L432.61 32.3359H433.635L433.042 35.229L430.764 43H429.746L430.493 39.7773ZM428.303 32.3359L429.988 39.6309L430.493 43H429.482L426.897 32.3359H428.303ZM436.375 39.6235L438.022 32.3359H439.436L436.858 43H435.847L436.375 39.6235ZM433.789 32.3359L435.847 39.7773L436.594 43H435.576L433.379 35.229L432.778 32.3359H433.789ZM442.271 35.0752V43H440.908V35.0752H442.271ZM440.806 32.9731C440.806 32.7534 440.872 32.5679 441.003 32.4165C441.14 32.2651 441.34 32.1895 441.604 32.1895C441.863 32.1895 442.061 32.2651 442.197 32.4165C442.339 32.5679 442.41 32.7534 442.41 32.9731C442.41 33.1831 442.339 33.3638 442.197 33.5151C442.061 33.6616 441.863 33.7349 441.604 33.7349C441.34 33.7349 441.14 33.6616 441.003 33.5151C440.872 33.3638 440.806 33.1831 440.806 32.9731ZM447.734 43.1465C447.183 43.1465 446.682 43.0537 446.233 42.8682C445.789 42.6777 445.405 42.4116 445.083 42.0698C444.766 41.728 444.521 41.3228 444.351 40.854C444.18 40.3853 444.094 39.8726 444.094 39.3159V39.0083C444.094 38.3638 444.189 37.79 444.38 37.2871C444.57 36.7793 444.829 36.3496 445.156 35.998C445.483 35.6465 445.854 35.3804 446.27 35.1997C446.685 35.019 447.114 34.9287 447.559 34.9287C448.125 34.9287 448.613 35.0264 449.023 35.2217C449.438 35.417 449.778 35.6904 450.042 36.042C450.305 36.3887 450.5 36.7988 450.627 37.2725C450.754 37.7412 450.818 38.2539 450.818 38.8105V39.4185H444.9V38.3125H449.463V38.21C449.443 37.8584 449.37 37.5166 449.243 37.1846C449.121 36.8525 448.926 36.5791 448.657 36.3643C448.389 36.1494 448.022 36.042 447.559 36.042C447.251 36.042 446.968 36.1079 446.709 36.2397C446.45 36.3667 446.228 36.5571 446.042 36.811C445.857 37.0649 445.713 37.375 445.61 37.7412C445.508 38.1074 445.457 38.5298 445.457 39.0083V39.3159C445.457 39.6919 445.508 40.0459 445.61 40.3779C445.718 40.7051 445.872 40.9932 446.072 41.2422C446.277 41.4912 446.523 41.6865 446.812 41.8281C447.104 41.9697 447.437 42.0405 447.808 42.0405C448.286 42.0405 448.691 41.9429 449.023 41.7476C449.355 41.5522 449.646 41.291 449.895 40.9639L450.715 41.6157C450.544 41.8745 450.327 42.1211 450.063 42.3555C449.8 42.5898 449.475 42.7803 449.089 42.9268C448.708 43.0732 448.257 43.1465 447.734 43.1465ZM457.014 40.8979C457.014 40.7026 456.97 40.522 456.882 40.356C456.799 40.1851 456.626 40.0312 456.362 39.8945C456.104 39.7529 455.713 39.6309 455.19 39.5283C454.751 39.4355 454.353 39.3257 453.997 39.1987C453.645 39.0718 453.345 38.918 453.096 38.7373C452.852 38.5566 452.664 38.3442 452.532 38.1001C452.4 37.856 452.334 37.5703 452.334 37.2432C452.334 36.9307 452.402 36.6353 452.539 36.3569C452.681 36.0786 452.878 35.832 453.132 35.6172C453.391 35.4023 453.701 35.2339 454.062 35.1118C454.424 34.9897 454.827 34.9287 455.271 34.9287C455.906 34.9287 456.448 35.041 456.897 35.2656C457.346 35.4902 457.69 35.7905 457.93 36.1665C458.169 36.5376 458.289 36.9502 458.289 37.4043H456.934C456.934 37.1846 456.868 36.9722 456.736 36.7671C456.609 36.5571 456.421 36.3838 456.172 36.2471C455.928 36.1104 455.627 36.042 455.271 36.042C454.895 36.042 454.59 36.1006 454.355 36.2178C454.126 36.3301 453.958 36.4741 453.85 36.6499C453.748 36.8257 453.696 37.0112 453.696 37.2065C453.696 37.353 453.721 37.4849 453.77 37.6021C453.823 37.7144 453.916 37.8193 454.048 37.917C454.18 38.0098 454.365 38.0977 454.604 38.1807C454.844 38.2637 455.149 38.3467 455.52 38.4297C456.169 38.5762 456.704 38.752 457.124 38.957C457.544 39.1621 457.856 39.4136 458.062 39.7114C458.267 40.0093 458.369 40.3706 458.369 40.7954C458.369 41.1421 458.296 41.4595 458.149 41.7476C458.008 42.0356 457.8 42.2847 457.527 42.4946C457.258 42.6997 456.936 42.8608 456.56 42.978C456.189 43.0903 455.771 43.1465 455.308 43.1465C454.609 43.1465 454.019 43.022 453.535 42.7729C453.052 42.5239 452.686 42.2017 452.437 41.8062C452.188 41.4106 452.063 40.9932 452.063 40.5537H453.425C453.445 40.9248 453.552 41.2202 453.748 41.4399C453.943 41.6548 454.182 41.8086 454.465 41.9014C454.749 41.9893 455.029 42.0332 455.308 42.0332C455.679 42.0332 455.989 41.9844 456.238 41.8867C456.492 41.7891 456.685 41.6548 456.816 41.4839C456.948 41.313 457.014 41.1177 457.014 40.8979ZM463.467 35.0752V36.1152H459.182V35.0752H463.467ZM460.632 33.1489H461.987V41.0371C461.987 41.3057 462.029 41.5083 462.112 41.645C462.195 41.7817 462.302 41.8721 462.434 41.916C462.566 41.96 462.708 41.9819 462.859 41.9819C462.971 41.9819 463.088 41.9722 463.21 41.9526C463.337 41.9282 463.433 41.9087 463.496 41.894L463.503 43C463.396 43.0342 463.254 43.0659 463.079 43.0952C462.908 43.1294 462.7 43.1465 462.456 43.1465C462.124 43.1465 461.819 43.0806 461.541 42.9487C461.262 42.8169 461.04 42.5972 460.874 42.2896C460.713 41.9771 460.632 41.5571 460.632 41.0298V33.1489ZM466.287 41.3887V42.48C466.287 42.9243 466.174 43.3931 465.95 43.8862C465.725 44.3843 465.41 44.7993 465.005 45.1313L464.236 44.5967C464.392 44.3818 464.524 44.1621 464.631 43.9375C464.739 43.7178 464.819 43.4883 464.873 43.249C464.932 43.0146 464.961 42.7656 464.961 42.502V41.3887H466.287ZM478.577 41.8867V43H471.597V42.0259L475.09 38.1367C475.52 37.6582 475.852 37.2529 476.086 36.9209C476.326 36.584 476.492 36.2837 476.584 36.02C476.682 35.7515 476.731 35.478 476.731 35.1997C476.731 34.8481 476.658 34.5308 476.511 34.2476C476.37 33.9595 476.16 33.73 475.881 33.5591C475.603 33.3882 475.266 33.3027 474.871 33.3027C474.397 33.3027 474.001 33.3955 473.684 33.5811C473.372 33.7617 473.137 34.0156 472.981 34.3428C472.825 34.6699 472.747 35.0459 472.747 35.4707H471.392C471.392 34.8701 471.523 34.3208 471.787 33.8228C472.051 33.3247 472.441 32.9292 472.959 32.6362C473.477 32.3384 474.114 32.1895 474.871 32.1895C475.544 32.1895 476.121 32.3091 476.599 32.5483C477.078 32.7827 477.444 33.1147 477.698 33.5444C477.957 33.9692 478.086 34.4673 478.086 35.0386C478.086 35.3511 478.032 35.6685 477.925 35.9907C477.822 36.3081 477.678 36.6255 477.493 36.9429C477.312 37.2603 477.1 37.5728 476.855 37.8804C476.616 38.188 476.36 38.4907 476.086 38.7886L473.23 41.8867H478.577ZM486.919 32.3359V33.0977L482.502 43H481.074L485.483 33.4492H479.712V32.3359H486.919ZM495.356 32.3359V33.0977L490.94 43H489.512L493.921 33.4492H488.149V32.3359H495.356ZM508.262 37.1187V38.2319H500.923V37.1187H508.262ZM521.174 41.8867V43H514.194V42.0259L517.688 38.1367C518.118 37.6582 518.45 37.2529 518.684 36.9209C518.923 36.584 519.089 36.2837 519.182 36.02C519.28 35.7515 519.329 35.478 519.329 35.1997C519.329 34.8481 519.255 34.5308 519.109 34.2476C518.967 33.9595 518.757 33.73 518.479 33.5591C518.201 33.3882 517.864 33.3027 517.468 33.3027C516.995 33.3027 516.599 33.3955 516.282 33.5811C515.969 33.7617 515.735 34.0156 515.579 34.3428C515.422 34.6699 515.344 35.0459 515.344 35.4707H513.989C513.989 34.8701 514.121 34.3208 514.385 33.8228C514.648 33.3247 515.039 32.9292 515.557 32.6362C516.074 32.3384 516.711 32.1895 517.468 32.1895C518.142 32.1895 518.718 32.3091 519.197 32.5483C519.675 32.7827 520.042 33.1147 520.295 33.5444C520.554 33.9692 520.684 34.4673 520.684 35.0386C520.684 35.3511 520.63 35.6685 520.522 35.9907C520.42 36.3081 520.276 36.6255 520.09 36.9429C519.91 37.2603 519.697 37.5728 519.453 37.8804C519.214 38.188 518.958 38.4907 518.684 38.7886L515.828 41.8867H521.174ZM522.639 35.3608V34.7676C522.639 34.2646 522.742 33.8203 522.947 33.4346C523.152 33.0439 523.44 32.7388 523.811 32.519C524.187 32.2944 524.631 32.1821 525.144 32.1821C525.662 32.1821 526.106 32.2944 526.477 32.519C526.853 32.7388 527.141 33.0439 527.341 33.4346C527.546 33.8203 527.649 34.2646 527.649 34.7676V35.3608C527.649 35.8638 527.546 36.3105 527.341 36.7012C527.141 37.0869 526.855 37.3896 526.484 37.6094C526.113 37.8291 525.671 37.939 525.159 37.939C524.641 37.939 524.194 37.8291 523.818 37.6094C523.442 37.3896 523.152 37.0869 522.947 36.7012C522.742 36.3105 522.639 35.8638 522.639 35.3608ZM523.833 34.7676V35.3608C523.833 35.6587 523.879 35.9248 523.972 36.1592C524.07 36.3936 524.216 36.5791 524.412 36.7158C524.612 36.8525 524.861 36.9209 525.159 36.9209C525.452 36.9209 525.693 36.8525 525.884 36.7158C526.079 36.5791 526.223 36.3936 526.316 36.1592C526.414 35.9248 526.462 35.6587 526.462 35.3608V34.7676C526.462 34.4746 526.414 34.2109 526.316 33.9766C526.218 33.7422 526.072 33.5566 525.876 33.4199C525.686 33.2832 525.442 33.2148 525.144 33.2148C524.851 33.2148 524.607 33.2832 524.412 33.4199C524.216 33.5566 524.07 33.7422 523.972 33.9766C523.879 34.2109 523.833 34.4746 523.833 34.7676ZM537.991 41.645V37.5654C537.991 37.2529 537.927 36.9819 537.8 36.7524C537.678 36.5181 537.493 36.3374 537.244 36.2104C536.995 36.0835 536.687 36.02 536.321 36.02C535.979 36.02 535.679 36.0786 535.42 36.1958C535.166 36.313 534.966 36.4668 534.819 36.6572C534.678 36.8477 534.607 37.0527 534.607 37.2725H533.252C533.252 36.9893 533.325 36.7085 533.472 36.4302C533.618 36.1519 533.828 35.9004 534.102 35.6758C534.38 35.4463 534.712 35.2656 535.098 35.1338C535.488 34.9971 535.923 34.9287 536.401 34.9287C536.978 34.9287 537.485 35.0264 537.925 35.2217C538.369 35.417 538.716 35.7124 538.965 36.1079C539.219 36.4985 539.346 36.9893 539.346 37.5801V41.2715C539.346 41.5352 539.368 41.8159 539.412 42.1138C539.46 42.4116 539.531 42.668 539.624 42.8828V43H538.21C538.142 42.8438 538.088 42.6362 538.049 42.3774C538.01 42.1138 537.991 41.8696 537.991 41.645ZM538.225 38.1953L538.24 39.1475H536.87C536.484 39.1475 536.14 39.1792 535.837 39.2427C535.535 39.3013 535.281 39.3916 535.076 39.5137C534.871 39.6357 534.714 39.7896 534.607 39.9751C534.5 40.1558 534.446 40.3682 534.446 40.6123C534.446 40.8613 534.502 41.0884 534.614 41.2935C534.727 41.4985 534.895 41.6621 535.12 41.7842C535.349 41.9014 535.63 41.96 535.962 41.96C536.377 41.96 536.743 41.8721 537.061 41.6963C537.378 41.5205 537.629 41.3057 537.815 41.0518C538.005 40.7979 538.108 40.5513 538.123 40.312L538.701 40.9639C538.667 41.1689 538.574 41.396 538.423 41.645C538.271 41.894 538.069 42.1333 537.815 42.3628C537.566 42.5874 537.268 42.7754 536.921 42.9268C536.58 43.0732 536.194 43.1465 535.764 43.1465C535.227 43.1465 534.756 43.0415 534.351 42.8315C533.95 42.6216 533.638 42.3408 533.413 41.9893C533.193 41.6328 533.083 41.2349 533.083 40.7954C533.083 40.3706 533.167 39.9971 533.333 39.6748C533.499 39.3477 533.738 39.0767 534.05 38.8618C534.363 38.6421 534.739 38.4761 535.178 38.3638C535.618 38.2515 536.108 38.1953 536.65 38.1953H538.225ZM542.832 36.7671V43H541.477V35.0752H542.759L542.832 36.7671ZM542.51 38.7373L541.946 38.7153C541.951 38.1733 542.031 37.6729 542.188 37.2139C542.344 36.75 542.563 36.3472 542.847 36.0054C543.13 35.6636 543.467 35.3999 543.857 35.2144C544.253 35.0239 544.69 34.9287 545.168 34.9287C545.559 34.9287 545.911 34.9824 546.223 35.0898C546.536 35.1924 546.802 35.3584 547.021 35.5879C547.246 35.8174 547.417 36.1152 547.534 36.4814C547.651 36.8428 547.71 37.2847 547.71 37.8071V43H546.348V37.7925C546.348 37.3774 546.287 37.0454 546.165 36.7964C546.042 36.5425 545.864 36.3594 545.63 36.2471C545.396 36.1299 545.107 36.0713 544.766 36.0713C544.429 36.0713 544.121 36.1421 543.843 36.2837C543.569 36.4253 543.333 36.6206 543.132 36.8696C542.937 37.1187 542.783 37.4043 542.671 37.7266C542.563 38.0439 542.51 38.3809 542.51 38.7373ZM554.763 41.4619V31.75H556.125V43H554.88L554.763 41.4619ZM549.431 39.1255V38.9717C549.431 38.3662 549.504 37.8169 549.651 37.3237C549.802 36.8257 550.015 36.3984 550.288 36.042C550.566 35.6855 550.896 35.4121 551.277 35.2217C551.663 35.0264 552.092 34.9287 552.566 34.9287C553.064 34.9287 553.499 35.0166 553.87 35.1924C554.246 35.3633 554.563 35.6147 554.822 35.9468C555.085 36.2739 555.293 36.6694 555.444 37.1333C555.596 37.5972 555.701 38.1221 555.759 38.708V39.3818C555.706 39.9629 555.601 40.4854 555.444 40.9492C555.293 41.4131 555.085 41.8086 554.822 42.1357C554.563 42.4629 554.246 42.7144 553.87 42.8901C553.494 43.061 553.054 43.1465 552.551 43.1465C552.087 43.1465 551.663 43.0464 551.277 42.8462C550.896 42.646 550.566 42.3652 550.288 42.0039C550.015 41.6426 549.802 41.2178 549.651 40.7295C549.504 40.2363 549.431 39.7017 549.431 39.1255ZM550.793 38.9717V39.1255C550.793 39.521 550.833 39.8921 550.911 40.2388C550.994 40.5854 551.121 40.8906 551.292 41.1543C551.462 41.418 551.68 41.6255 551.943 41.7769C552.207 41.9233 552.522 41.9966 552.888 41.9966C553.337 41.9966 553.706 41.9014 553.994 41.7109C554.287 41.5205 554.521 41.269 554.697 40.9565C554.873 40.644 555.01 40.3047 555.107 39.9385V38.1733C555.049 37.9048 554.963 37.646 554.851 37.397C554.744 37.1431 554.602 36.9185 554.426 36.7231C554.255 36.5229 554.043 36.3643 553.789 36.2471C553.54 36.1299 553.245 36.0713 552.903 36.0713C552.532 36.0713 552.212 36.1494 551.943 36.3057C551.68 36.457 551.462 36.667 551.292 36.9355C551.121 37.1992 550.994 37.5068 550.911 37.8584C550.833 38.2051 550.793 38.5762 550.793 38.9717ZM562.908 41.645V37.5654C562.908 37.2529 562.844 36.9819 562.717 36.7524C562.595 36.5181 562.41 36.3374 562.161 36.2104C561.912 36.0835 561.604 36.02 561.238 36.02C560.896 36.02 560.596 36.0786 560.337 36.1958C560.083 36.313 559.883 36.4668 559.736 36.6572C559.595 36.8477 559.524 37.0527 559.524 37.2725H558.169C558.169 36.9893 558.242 36.7085 558.389 36.4302C558.535 36.1519 558.745 35.9004 559.019 35.6758C559.297 35.4463 559.629 35.2656 560.015 35.1338C560.405 34.9971 560.84 34.9287 561.318 34.9287C561.895 34.9287 562.402 35.0264 562.842 35.2217C563.286 35.417 563.633 35.7124 563.882 36.1079C564.136 36.4985 564.263 36.9893 564.263 37.5801V41.2715C564.263 41.5352 564.285 41.8159 564.329 42.1138C564.377 42.4116 564.448 42.668 564.541 42.8828V43H563.127C563.059 42.8438 563.005 42.6362 562.966 42.3774C562.927 42.1138 562.908 41.8696 562.908 41.645ZM563.142 38.1953L563.157 39.1475H561.787C561.401 39.1475 561.057 39.1792 560.754 39.2427C560.452 39.3013 560.198 39.3916 559.993 39.5137C559.788 39.6357 559.631 39.7896 559.524 39.9751C559.417 40.1558 559.363 40.3682 559.363 40.6123C559.363 40.8613 559.419 41.0884 559.531 41.2935C559.644 41.4985 559.812 41.6621 560.037 41.7842C560.266 41.9014 560.547 41.96 560.879 41.96C561.294 41.96 561.66 41.8721 561.978 41.6963C562.295 41.5205 562.546 41.3057 562.732 41.0518C562.922 40.7979 563.025 40.5513 563.04 40.312L563.618 40.9639C563.584 41.1689 563.491 41.396 563.34 41.645C563.188 41.894 562.986 42.1333 562.732 42.3628C562.483 42.5874 562.185 42.7754 561.838 42.9268C561.497 43.0732 561.111 43.1465 560.681 43.1465C560.144 43.1465 559.673 43.0415 559.268 42.8315C558.867 42.6216 558.555 42.3408 558.33 41.9893C558.11 41.6328 558 41.2349 558 40.7954C558 40.3706 558.083 39.9971 558.25 39.6748C558.416 39.3477 558.655 39.0767 558.967 38.8618C559.28 38.6421 559.656 38.4761 560.095 38.3638C560.535 38.2515 561.025 38.1953 561.567 38.1953H563.142ZM567.749 36.3203V43H566.394V35.0752H567.712L567.749 36.3203ZM570.225 35.0312L570.217 36.291C570.105 36.2666 569.998 36.252 569.895 36.2471C569.797 36.2373 569.685 36.2324 569.558 36.2324C569.246 36.2324 568.97 36.2812 568.73 36.3789C568.491 36.4766 568.289 36.6133 568.123 36.7891C567.957 36.9648 567.825 37.1748 567.727 37.4189C567.634 37.6582 567.573 37.9219 567.544 38.21L567.163 38.4297C567.163 37.9512 567.209 37.502 567.302 37.082C567.4 36.6621 567.549 36.291 567.749 35.9688C567.949 35.6416 568.203 35.3877 568.511 35.207C568.823 35.0215 569.194 34.9287 569.624 34.9287C569.722 34.9287 569.834 34.9409 569.961 34.9653C570.088 34.9849 570.176 35.0068 570.225 35.0312ZM582.69 37.1187V38.2319H575.352V37.1187H582.69ZM592.769 38.0122H590.066L590.051 36.877H592.505C592.91 36.877 593.264 36.8086 593.567 36.6719C593.87 36.5352 594.104 36.3398 594.27 36.0859C594.441 35.8271 594.526 35.5195 594.526 35.1631C594.526 34.7725 594.451 34.4551 594.299 34.2109C594.153 33.9619 593.926 33.7812 593.618 33.6689C593.315 33.5518 592.93 33.4932 592.461 33.4932H590.381V43H588.967V32.3359H592.461C593.008 32.3359 593.496 32.3921 593.926 32.5044C594.355 32.6118 594.719 32.7827 595.017 33.0171C595.32 33.2466 595.549 33.5396 595.706 33.896C595.862 34.2524 595.94 34.6797 595.94 35.1777C595.94 35.6172 595.828 36.0151 595.603 36.3716C595.378 36.7231 595.066 37.0112 594.666 37.2358C594.27 37.4604 593.806 37.6045 593.274 37.668L592.769 38.0122ZM592.703 43H589.509L590.308 41.8501H592.703C593.152 41.8501 593.533 41.772 593.845 41.6157C594.163 41.4595 594.404 41.2397 594.57 40.9565C594.736 40.6685 594.819 40.3291 594.819 39.9385C594.819 39.543 594.749 39.2012 594.607 38.9131C594.465 38.625 594.243 38.4028 593.94 38.2466C593.638 38.0903 593.247 38.0122 592.769 38.0122H590.754L590.769 36.877H593.523L593.823 37.2871C594.336 37.3311 594.771 37.4775 595.127 37.7266C595.483 37.9707 595.754 38.2832 595.94 38.6641C596.13 39.0449 596.226 39.4648 596.226 39.9238C596.226 40.5879 596.079 41.1494 595.786 41.6084C595.498 42.0625 595.09 42.4092 594.563 42.6484C594.036 42.8828 593.416 43 592.703 43ZM597.749 39.1255V38.957C597.749 38.3857 597.832 37.856 597.998 37.3677C598.164 36.8745 598.403 36.4473 598.716 36.0859C599.028 35.7197 599.407 35.4365 599.851 35.2363C600.295 35.0312 600.793 34.9287 601.345 34.9287C601.902 34.9287 602.402 35.0312 602.847 35.2363C603.296 35.4365 603.677 35.7197 603.989 36.0859C604.307 36.4473 604.548 36.8745 604.714 37.3677C604.88 37.856 604.963 38.3857 604.963 38.957V39.1255C604.963 39.6968 604.88 40.2266 604.714 40.7148C604.548 41.2031 604.307 41.6304 603.989 41.9966C603.677 42.3579 603.298 42.6411 602.854 42.8462C602.415 43.0464 601.917 43.1465 601.36 43.1465C600.803 43.1465 600.303 43.0464 599.858 42.8462C599.414 42.6411 599.033 42.3579 598.716 41.9966C598.403 41.6304 598.164 41.2031 597.998 40.7148C597.832 40.2266 597.749 39.6968 597.749 39.1255ZM599.104 38.957V39.1255C599.104 39.521 599.15 39.8945 599.243 40.2461C599.336 40.5928 599.475 40.9004 599.661 41.1689C599.851 41.4375 600.088 41.6499 600.371 41.8062C600.654 41.9575 600.984 42.0332 601.36 42.0332C601.731 42.0332 602.056 41.9575 602.334 41.8062C602.617 41.6499 602.852 41.4375 603.037 41.1689C603.223 40.9004 603.362 40.5928 603.455 40.2461C603.552 39.8945 603.601 39.521 603.601 39.1255V38.957C603.601 38.5664 603.552 38.1978 603.455 37.8511C603.362 37.4995 603.22 37.1895 603.03 36.9209C602.844 36.6475 602.61 36.4326 602.327 36.2764C602.048 36.1201 601.721 36.042 601.345 36.042C600.974 36.042 600.647 36.1201 600.364 36.2764C600.085 36.4326 599.851 36.6475 599.661 36.9209C599.475 37.1895 599.336 37.4995 599.243 37.8511C599.15 38.1978 599.104 38.5664 599.104 38.957ZM608.01 36.6499V43H606.648V35.0752H607.937L608.01 36.6499ZM607.732 38.7373L607.102 38.7153C607.107 38.1733 607.178 37.6729 607.314 37.2139C607.451 36.75 607.654 36.3472 607.922 36.0054C608.191 35.6636 608.525 35.3999 608.926 35.2144C609.326 35.0239 609.79 34.9287 610.317 34.9287C610.688 34.9287 611.03 34.9824 611.343 35.0898C611.655 35.1924 611.926 35.356 612.156 35.5806C612.385 35.8052 612.563 36.0933 612.69 36.4448C612.817 36.7964 612.881 37.2212 612.881 37.7192V43H611.526V37.7852C611.526 37.3701 611.455 37.0381 611.313 36.7891C611.177 36.54 610.981 36.3594 610.728 36.2471C610.474 36.1299 610.176 36.0713 609.834 36.0713C609.434 36.0713 609.099 36.1421 608.831 36.2837C608.562 36.4253 608.347 36.6206 608.186 36.8696C608.025 37.1187 607.908 37.4043 607.834 37.7266C607.766 38.0439 607.732 38.3809 607.732 38.7373ZM612.866 37.9902L611.958 38.2686C611.963 37.834 612.034 37.4165 612.17 37.0161C612.312 36.6157 612.515 36.2593 612.778 35.9468C613.047 35.6343 613.376 35.3877 613.767 35.207C614.158 35.0215 614.604 34.9287 615.107 34.9287C615.532 34.9287 615.908 34.9849 616.235 35.0972C616.567 35.2095 616.846 35.3828 617.07 35.6172C617.3 35.8467 617.473 36.1421 617.59 36.5034C617.708 36.8647 617.766 37.2944 617.766 37.7925V43H616.404V37.7778C616.404 37.3335 616.333 36.9893 616.191 36.7451C616.055 36.4961 615.859 36.3228 615.605 36.2251C615.356 36.1226 615.059 36.0713 614.712 36.0713C614.414 36.0713 614.15 36.1226 613.921 36.2251C613.691 36.3276 613.499 36.4692 613.342 36.6499C613.186 36.8257 613.066 37.0283 612.983 37.2578C612.905 37.4873 612.866 37.7314 612.866 37.9902ZM623.743 32.3359H627.273C628.074 32.3359 628.75 32.458 629.302 32.7021C629.858 32.9463 630.281 33.3076 630.569 33.7861C630.862 34.2598 631.008 34.8433 631.008 35.5366C631.008 36.0249 630.908 36.4717 630.708 36.877C630.513 37.2773 630.229 37.6191 629.858 37.9023C629.492 38.1807 629.053 38.3882 628.54 38.5249L628.145 38.6787H624.827L624.812 37.5288H627.317C627.825 37.5288 628.247 37.4409 628.584 37.2651C628.921 37.0845 629.175 36.8428 629.346 36.54C629.517 36.2373 629.602 35.9028 629.602 35.5366C629.602 35.1265 629.521 34.7676 629.36 34.46C629.199 34.1523 628.945 33.9155 628.599 33.7495C628.257 33.5786 627.815 33.4932 627.273 33.4932H625.156V43H623.743V32.3359ZM629.976 43L627.383 38.166L628.855 38.1587L631.484 42.9121V43H629.976ZM636.069 43.1465C635.518 43.1465 635.017 43.0537 634.568 42.8682C634.124 42.6777 633.74 42.4116 633.418 42.0698C633.101 41.728 632.856 41.3228 632.686 40.854C632.515 40.3853 632.429 39.8726 632.429 39.3159V39.0083C632.429 38.3638 632.524 37.79 632.715 37.2871C632.905 36.7793 633.164 36.3496 633.491 35.998C633.818 35.6465 634.189 35.3804 634.604 35.1997C635.02 35.019 635.449 34.9287 635.894 34.9287C636.46 34.9287 636.948 35.0264 637.358 35.2217C637.773 35.417 638.113 35.6904 638.376 36.042C638.64 36.3887 638.835 36.7988 638.962 37.2725C639.089 37.7412 639.153 38.2539 639.153 38.8105V39.4185H633.235V38.3125H637.798V38.21C637.778 37.8584 637.705 37.5166 637.578 37.1846C637.456 36.8525 637.261 36.5791 636.992 36.3643C636.724 36.1494 636.357 36.042 635.894 36.042C635.586 36.042 635.303 36.1079 635.044 36.2397C634.785 36.3667 634.563 36.5571 634.377 36.811C634.192 37.0649 634.048 37.375 633.945 37.7412C633.843 38.1074 633.792 38.5298 633.792 39.0083V39.3159C633.792 39.6919 633.843 40.0459 633.945 40.3779C634.053 40.7051 634.207 40.9932 634.407 41.2422C634.612 41.4912 634.858 41.6865 635.146 41.8281C635.439 41.9697 635.771 42.0405 636.143 42.0405C636.621 42.0405 637.026 41.9429 637.358 41.7476C637.69 41.5522 637.981 41.291 638.23 40.9639L639.05 41.6157C638.879 41.8745 638.662 42.1211 638.398 42.3555C638.135 42.5898 637.81 42.7803 637.424 42.9268C637.043 43.0732 636.592 43.1465 636.069 43.1465ZM644.053 35.0752V36.1152H639.768V35.0752H644.053ZM641.218 33.1489H642.573V41.0371C642.573 41.3057 642.615 41.5083 642.698 41.645C642.781 41.7817 642.888 41.8721 643.02 41.916C643.152 41.96 643.293 41.9819 643.445 41.9819C643.557 41.9819 643.674 41.9722 643.796 41.9526C643.923 41.9282 644.019 41.9087 644.082 41.894L644.089 43C643.982 43.0342 643.84 43.0659 643.665 43.0952C643.494 43.1294 643.286 43.1465 643.042 43.1465C642.71 43.1465 642.405 43.0806 642.126 42.9487C641.848 42.8169 641.626 42.5972 641.46 42.2896C641.299 41.9771 641.218 41.5571 641.218 41.0298V33.1489ZM647.114 35.0752V43H645.752V35.0752H647.114ZM645.649 32.9731C645.649 32.7534 645.715 32.5679 645.847 32.4165C645.984 32.2651 646.184 32.1895 646.448 32.1895C646.707 32.1895 646.904 32.2651 647.041 32.4165C647.183 32.5679 647.253 32.7534 647.253 32.9731C647.253 33.1831 647.183 33.3638 647.041 33.5151C646.904 33.6616 646.707 33.7349 646.448 33.7349C646.184 33.7349 645.984 33.6616 645.847 33.5151C645.715 33.3638 645.649 33.1831 645.649 32.9731ZM650.645 36.3203V43H649.29V35.0752H650.608L650.645 36.3203ZM653.12 35.0312L653.113 36.291C653 36.2666 652.893 36.252 652.791 36.2471C652.693 36.2373 652.581 36.2324 652.454 36.2324C652.141 36.2324 651.865 36.2812 651.626 36.3789C651.387 36.4766 651.184 36.6133 651.018 36.7891C650.852 36.9648 650.72 37.1748 650.623 37.4189C650.53 37.6582 650.469 37.9219 650.439 38.21L650.059 38.4297C650.059 37.9512 650.105 37.502 650.198 37.082C650.295 36.6621 650.444 36.291 650.645 35.9688C650.845 35.6416 651.099 35.3877 651.406 35.207C651.719 35.0215 652.09 34.9287 652.52 34.9287C652.617 34.9287 652.729 34.9409 652.856 34.9653C652.983 34.9849 653.071 35.0068 653.12 35.0312ZM653.867 39.1255V38.957C653.867 38.3857 653.95 37.856 654.116 37.3677C654.282 36.8745 654.521 36.4473 654.834 36.0859C655.146 35.7197 655.525 35.4365 655.969 35.2363C656.414 35.0312 656.912 34.9287 657.463 34.9287C658.02 34.9287 658.521 35.0312 658.965 35.2363C659.414 35.4365 659.795 35.7197 660.107 36.0859C660.425 36.4473 660.667 36.8745 660.833 37.3677C660.999 37.856 661.082 38.3857 661.082 38.957V39.1255C661.082 39.6968 660.999 40.2266 660.833 40.7148C660.667 41.2031 660.425 41.6304 660.107 41.9966C659.795 42.3579 659.417 42.6411 658.972 42.8462C658.533 43.0464 658.035 43.1465 657.478 43.1465C656.921 43.1465 656.421 43.0464 655.977 42.8462C655.532 42.6411 655.151 42.3579 654.834 41.9966C654.521 41.6304 654.282 41.2031 654.116 40.7148C653.95 40.2266 653.867 39.6968 653.867 39.1255ZM655.222 38.957V39.1255C655.222 39.521 655.269 39.8945 655.361 40.2461C655.454 40.5928 655.593 40.9004 655.779 41.1689C655.969 41.4375 656.206 41.6499 656.489 41.8062C656.772 41.9575 657.102 42.0332 657.478 42.0332C657.849 42.0332 658.174 41.9575 658.452 41.8062C658.735 41.6499 658.97 41.4375 659.155 41.1689C659.341 40.9004 659.48 40.5928 659.573 40.2461C659.67 39.8945 659.719 39.521 659.719 39.1255V38.957C659.719 38.5664 659.67 38.1978 659.573 37.8511C659.48 37.4995 659.338 37.1895 659.148 36.9209C658.962 36.6475 658.728 36.4326 658.445 36.2764C658.167 36.1201 657.839 36.042 657.463 36.042C657.092 36.042 656.765 36.1201 656.482 36.2764C656.204 36.4326 655.969 36.6475 655.779 36.9209C655.593 37.1895 655.454 37.4995 655.361 37.8511C655.269 38.1978 655.222 38.5664 655.222 38.957ZM380.176 61.6089H381.582C381.509 62.2827 381.316 62.8857 381.003 63.418C380.691 63.9502 380.249 64.3726 379.678 64.6851C379.106 64.9927 378.394 65.1465 377.539 65.1465C376.914 65.1465 376.345 65.0293 375.833 64.7949C375.325 64.5605 374.888 64.2285 374.521 63.7988C374.155 63.3643 373.872 62.8442 373.672 62.2388C373.477 61.6284 373.379 60.9497 373.379 60.2026V59.1406C373.379 58.3936 373.477 57.7173 373.672 57.1118C373.872 56.5015 374.158 55.979 374.529 55.5444C374.905 55.1099 375.356 54.7754 375.884 54.541C376.411 54.3066 377.004 54.1895 377.664 54.1895C378.469 54.1895 379.15 54.3408 379.707 54.6436C380.264 54.9463 380.696 55.3662 381.003 55.9033C381.316 56.4355 381.509 57.0532 381.582 57.7563H380.176C380.107 57.2583 379.98 56.8311 379.795 56.4746C379.609 56.1133 379.346 55.835 379.004 55.6396C378.662 55.4443 378.215 55.3467 377.664 55.3467C377.19 55.3467 376.772 55.437 376.411 55.6177C376.055 55.7983 375.754 56.0547 375.51 56.3867C375.271 56.7188 375.09 57.1167 374.968 57.5806C374.846 58.0444 374.785 58.5596 374.785 59.126V60.2026C374.785 60.7251 374.839 61.2158 374.946 61.6748C375.059 62.1338 375.227 62.5366 375.452 62.8833C375.676 63.23 375.962 63.5034 376.309 63.7036C376.655 63.8989 377.065 63.9966 377.539 63.9966C378.14 63.9966 378.618 63.9014 378.975 63.7109C379.331 63.5205 379.6 63.2471 379.78 62.8906C379.966 62.5342 380.098 62.1069 380.176 61.6089ZM390.283 63.8501V65H384.636V63.8501H390.283ZM384.922 54.3359V65H383.508V54.3359H384.922ZM389.536 58.9209V60.0708H384.636V58.9209H389.536ZM390.21 54.3359V55.4932H384.636V54.3359H390.21ZM395.967 60.8179H393.118V59.668H395.967C396.519 59.668 396.965 59.5801 397.307 59.4043C397.649 59.2285 397.898 58.9844 398.054 58.6719C398.215 58.3594 398.296 58.0029 398.296 57.6025C398.296 57.2363 398.215 56.8921 398.054 56.5698C397.898 56.2476 397.649 55.9888 397.307 55.7935C396.965 55.5933 396.519 55.4932 395.967 55.4932H393.447V65H392.034V54.3359H395.967C396.772 54.3359 397.454 54.4751 398.01 54.7534C398.567 55.0317 398.989 55.4175 399.277 55.9106C399.565 56.3989 399.709 56.958 399.709 57.5879C399.709 58.2715 399.565 58.855 399.277 59.3384C398.989 59.8218 398.567 60.1904 398.01 60.4443C397.454 60.6934 396.772 60.8179 395.967 60.8179ZM401.233 64.2822C401.233 64.0527 401.304 63.8599 401.445 63.7036C401.592 63.5425 401.802 63.4619 402.075 63.4619C402.349 63.4619 402.556 63.5425 402.698 63.7036C402.844 63.8599 402.917 64.0527 402.917 64.2822C402.917 64.5068 402.844 64.6973 402.698 64.8535C402.556 65.0098 402.349 65.0879 402.075 65.0879C401.802 65.0879 401.592 65.0098 401.445 64.8535C401.304 64.6973 401.233 64.5068 401.233 64.2822ZM401.24 57.8149C401.24 57.5854 401.311 57.3926 401.453 57.2363C401.599 57.0752 401.809 56.9946 402.083 56.9946C402.356 56.9946 402.563 57.0752 402.705 57.2363C402.852 57.3926 402.925 57.5854 402.925 57.8149C402.925 58.0396 402.852 58.23 402.705 58.3862C402.563 58.5425 402.356 58.6206 402.083 58.6206C401.809 58.6206 401.599 58.5425 401.453 58.3862C401.311 58.23 401.24 58.0396 401.24 57.8149ZM415.222 62.1143C415.222 62.7637 415.071 63.3154 414.768 63.7695C414.47 64.2188 414.065 64.5605 413.552 64.7949C413.044 65.0293 412.471 65.1465 411.831 65.1465C411.191 65.1465 410.615 65.0293 410.103 64.7949C409.59 64.5605 409.185 64.2188 408.887 63.7695C408.589 63.3154 408.44 62.7637 408.44 62.1143C408.44 61.6895 408.521 61.3013 408.682 60.9497C408.848 60.5933 409.08 60.2832 409.377 60.0195C409.68 59.7559 410.037 59.5532 410.447 59.4116C410.862 59.2651 411.318 59.1919 411.816 59.1919C412.471 59.1919 413.054 59.3188 413.567 59.5728C414.08 59.8218 414.482 60.166 414.775 60.6055C415.073 61.0449 415.222 61.5479 415.222 62.1143ZM413.86 62.085C413.86 61.6895 413.774 61.3403 413.604 61.0376C413.433 60.73 413.193 60.4907 412.886 60.3198C412.578 60.1489 412.222 60.0635 411.816 60.0635C411.401 60.0635 411.042 60.1489 410.74 60.3198C410.442 60.4907 410.21 60.73 410.044 61.0376C409.878 61.3403 409.795 61.6895 409.795 62.085C409.795 62.4951 409.875 62.8467 410.037 63.1396C410.203 63.4277 410.437 63.6499 410.74 63.8062C411.047 63.9575 411.411 64.0332 411.831 64.0332C412.251 64.0332 412.612 63.9575 412.915 63.8062C413.218 63.6499 413.45 63.4277 413.611 63.1396C413.777 62.8467 413.86 62.4951 413.86 62.085ZM414.973 57.1118C414.973 57.6294 414.836 58.0957 414.563 58.5107C414.29 58.9258 413.916 59.2529 413.442 59.4922C412.969 59.7314 412.432 59.8511 411.831 59.8511C411.221 59.8511 410.676 59.7314 410.198 59.4922C409.724 59.2529 409.353 58.9258 409.084 58.5107C408.816 58.0957 408.682 57.6294 408.682 57.1118C408.682 56.4917 408.816 55.9644 409.084 55.5298C409.358 55.0952 409.731 54.7632 410.205 54.5337C410.679 54.3042 411.218 54.1895 411.824 54.1895C412.434 54.1895 412.976 54.3042 413.45 54.5337C413.923 54.7632 414.294 55.0952 414.563 55.5298C414.836 55.9644 414.973 56.4917 414.973 57.1118ZM413.618 57.1338C413.618 56.7773 413.542 56.4624 413.391 56.189C413.24 55.9155 413.03 55.7007 412.761 55.5444C412.493 55.3833 412.18 55.3027 411.824 55.3027C411.467 55.3027 411.155 55.3784 410.886 55.5298C410.623 55.6763 410.415 55.8862 410.264 56.1597C410.117 56.4331 410.044 56.7578 410.044 57.1338C410.044 57.5 410.117 57.8198 410.264 58.0933C410.415 58.3667 410.625 58.5791 410.894 58.7305C411.162 58.8818 411.475 58.9575 411.831 58.9575C412.188 58.9575 412.498 58.8818 412.761 58.7305C413.03 58.5791 413.24 58.3667 413.391 58.0933C413.542 57.8198 413.618 57.5 413.618 57.1338ZM418.284 63.8647H418.423C419.204 63.8647 419.839 63.7549 420.327 63.5352C420.815 63.3154 421.191 63.02 421.455 62.6489C421.719 62.2778 421.899 61.8604 421.997 61.3965C422.095 60.9277 422.144 60.4468 422.144 59.9536V58.3203C422.144 57.8369 422.087 57.4072 421.975 57.0312C421.868 56.6553 421.716 56.3403 421.521 56.0864C421.331 55.8325 421.113 55.6396 420.869 55.5078C420.625 55.376 420.366 55.3101 420.093 55.3101C419.78 55.3101 419.5 55.3735 419.25 55.5005C419.006 55.6226 418.799 55.7959 418.628 56.0205C418.462 56.2451 418.335 56.5088 418.247 56.8115C418.159 57.1143 418.115 57.4438 418.115 57.8003C418.115 58.1177 418.154 58.4253 418.232 58.7231C418.311 59.021 418.43 59.2896 418.591 59.5288C418.752 59.7681 418.953 59.9585 419.192 60.1001C419.436 60.2368 419.722 60.3052 420.049 60.3052C420.352 60.3052 420.635 60.2466 420.898 60.1294C421.167 60.0073 421.404 59.8438 421.609 59.6387C421.819 59.4287 421.985 59.1919 422.107 58.9282C422.234 58.6646 422.307 58.3887 422.327 58.1006H422.971C422.971 58.5059 422.891 58.9062 422.729 59.3018C422.573 59.6924 422.354 60.0488 422.07 60.3711C421.787 60.6934 421.455 60.9521 421.074 61.1475C420.693 61.3379 420.278 61.4331 419.829 61.4331C419.302 61.4331 418.845 61.3306 418.459 61.1255C418.074 60.9204 417.756 60.647 417.507 60.3052C417.263 59.9634 417.08 59.5825 416.958 59.1626C416.841 58.7378 416.782 58.3081 416.782 57.8735C416.782 57.3657 416.853 56.8896 416.995 56.4453C417.136 56.001 417.346 55.6104 417.625 55.2734C417.903 54.9316 418.247 54.6655 418.657 54.4751C419.072 54.2847 419.551 54.1895 420.093 54.1895C420.703 54.1895 421.223 54.3115 421.653 54.5557C422.083 54.7998 422.432 55.127 422.7 55.5371C422.974 55.9473 423.174 56.4087 423.301 56.9214C423.428 57.4341 423.491 57.9614 423.491 58.5034V58.9941C423.491 59.5459 423.455 60.1074 423.381 60.6787C423.313 61.2451 423.179 61.7871 422.979 62.3047C422.783 62.8223 422.498 63.2861 422.122 63.6963C421.746 64.1016 421.255 64.4238 420.649 64.6631C420.049 64.8975 419.307 65.0146 418.423 65.0146H418.284V63.8647ZM432.361 63.8867V65H425.381V64.0259L428.875 60.1367C429.304 59.6582 429.636 59.2529 429.871 58.9209C430.11 58.584 430.276 58.2837 430.369 58.02C430.466 57.7515 430.515 57.478 430.515 57.1997C430.515 56.8481 430.442 56.5308 430.295 56.2476C430.154 55.9595 429.944 55.73 429.666 55.5591C429.387 55.3882 429.05 55.3027 428.655 55.3027C428.181 55.3027 427.786 55.3955 427.468 55.5811C427.156 55.7617 426.921 56.0156 426.765 56.3428C426.609 56.6699 426.531 57.0459 426.531 57.4707H425.176C425.176 56.8701 425.308 56.3208 425.571 55.8228C425.835 55.3247 426.226 54.9292 426.743 54.6362C427.261 54.3384 427.898 54.1895 428.655 54.1895C429.329 54.1895 429.905 54.3091 430.383 54.5483C430.862 54.7827 431.228 55.1147 431.482 55.5444C431.741 55.9692 431.87 56.4673 431.87 57.0386C431.87 57.3511 431.816 57.6685 431.709 57.9907C431.606 58.3081 431.462 58.6255 431.277 58.9429C431.096 59.2603 430.884 59.5728 430.64 59.8804C430.4 60.188 430.144 60.4907 429.871 60.7886L427.014 63.8867H432.361ZM440.798 63.8867V65H433.818V64.0259L437.312 60.1367C437.742 59.6582 438.074 59.2529 438.308 58.9209C438.547 58.584 438.713 58.2837 438.806 58.02C438.904 57.7515 438.953 57.478 438.953 57.1997C438.953 56.8481 438.879 56.5308 438.733 56.2476C438.591 55.9595 438.381 55.73 438.103 55.5591C437.825 55.3882 437.488 55.3027 437.092 55.3027C436.619 55.3027 436.223 55.3955 435.906 55.5811C435.593 55.7617 435.359 56.0156 435.203 56.3428C435.046 56.6699 434.968 57.0459 434.968 57.4707H433.613C433.613 56.8701 433.745 56.3208 434.009 55.8228C434.272 55.3247 434.663 54.9292 435.181 54.6362C435.698 54.3384 436.335 54.1895 437.092 54.1895C437.766 54.1895 438.342 54.3091 438.821 54.5483C439.299 54.7827 439.666 55.1147 439.919 55.5444C440.178 55.9692 440.308 56.4673 440.308 57.0386C440.308 57.3511 440.254 57.6685 440.146 57.9907C440.044 58.3081 439.9 58.6255 439.714 58.9429C439.534 59.2603 439.321 59.5728 439.077 59.8804C438.838 60.188 438.582 60.4907 438.308 60.7886L435.452 63.8867H440.798ZM444.226 59.0015H445.193C445.667 59.0015 446.057 58.9233 446.365 58.7671C446.677 58.606 446.909 58.3887 447.061 58.1152C447.217 57.8369 447.295 57.5244 447.295 57.1777C447.295 56.7676 447.227 56.4233 447.09 56.145C446.953 55.8667 446.748 55.6567 446.475 55.5151C446.201 55.3735 445.854 55.3027 445.435 55.3027C445.054 55.3027 444.717 55.3784 444.424 55.5298C444.136 55.6763 443.909 55.8862 443.743 56.1597C443.582 56.4331 443.501 56.7554 443.501 57.1265H442.146C442.146 56.5845 442.283 56.0913 442.556 55.647C442.83 55.2026 443.213 54.8486 443.706 54.585C444.204 54.3213 444.78 54.1895 445.435 54.1895C446.079 54.1895 446.643 54.3042 447.126 54.5337C447.61 54.7583 447.986 55.0952 448.254 55.5444C448.523 55.9888 448.657 56.543 448.657 57.207C448.657 57.4756 448.594 57.7637 448.467 58.0713C448.345 58.374 448.152 58.6572 447.888 58.9209C447.629 59.1846 447.292 59.4019 446.877 59.5728C446.462 59.7388 445.964 59.8218 445.383 59.8218H444.226V59.0015ZM444.226 60.1147V59.3018H445.383C446.062 59.3018 446.624 59.3823 447.068 59.5435C447.512 59.7046 447.861 59.9194 448.115 60.188C448.374 60.4565 448.555 60.752 448.657 61.0742C448.765 61.3916 448.818 61.709 448.818 62.0264C448.818 62.5244 448.733 62.9663 448.562 63.3521C448.396 63.7378 448.159 64.0649 447.852 64.3335C447.549 64.6021 447.192 64.8047 446.782 64.9414C446.372 65.0781 445.925 65.1465 445.442 65.1465C444.978 65.1465 444.541 65.0806 444.131 64.9487C443.726 64.8169 443.367 64.6265 443.054 64.3774C442.742 64.1235 442.498 63.8135 442.322 63.4473C442.146 63.0762 442.058 62.6538 442.058 62.1802H443.413C443.413 62.5513 443.494 62.876 443.655 63.1543C443.821 63.4326 444.055 63.6499 444.358 63.8062C444.666 63.9575 445.027 64.0332 445.442 64.0332C445.857 64.0332 446.213 63.9624 446.511 63.8208C446.814 63.6743 447.046 63.4546 447.207 63.1616C447.373 62.8687 447.456 62.5 447.456 62.0557C447.456 61.6113 447.363 61.2476 447.178 60.9644C446.992 60.6763 446.729 60.4639 446.387 60.3271C446.05 60.1855 445.652 60.1147 445.193 60.1147H444.226ZM453.652 59.9097V61.0229H450.078V59.9097H453.652ZM461.526 58.8184V60.4443C461.526 61.3184 461.448 62.0557 461.292 62.6562C461.135 63.2568 460.911 63.7402 460.618 64.1064C460.325 64.4727 459.971 64.7388 459.556 64.9048C459.146 65.0659 458.682 65.1465 458.164 65.1465C457.754 65.1465 457.375 65.0952 457.029 64.9927C456.682 64.8901 456.37 64.7266 456.091 64.502C455.818 64.2725 455.583 63.9746 455.388 63.6084C455.193 63.2422 455.044 62.7979 454.941 62.2754C454.839 61.7529 454.788 61.1426 454.788 60.4443V58.8184C454.788 57.9443 454.866 57.2119 455.022 56.6211C455.183 56.0303 455.41 55.5566 455.703 55.2002C455.996 54.8389 456.348 54.5801 456.758 54.4238C457.173 54.2676 457.637 54.1895 458.149 54.1895C458.564 54.1895 458.945 54.2407 459.292 54.3433C459.644 54.4409 459.956 54.5996 460.229 54.8193C460.503 55.0342 460.735 55.3223 460.925 55.6836C461.121 56.04 461.27 56.4771 461.372 56.9946C461.475 57.5122 461.526 58.1201 461.526 58.8184ZM460.164 60.6641V58.5913C460.164 58.1128 460.134 57.6929 460.076 57.3315C460.022 56.9653 459.941 56.6528 459.834 56.394C459.727 56.1353 459.59 55.9253 459.424 55.7642C459.263 55.603 459.075 55.4858 458.86 55.4126C458.65 55.3345 458.413 55.2954 458.149 55.2954C457.827 55.2954 457.542 55.3564 457.292 55.4785C457.043 55.5957 456.833 55.7837 456.663 56.0425C456.497 56.3013 456.37 56.6406 456.282 57.0605C456.194 57.4805 456.15 57.9907 456.15 58.5913V60.6641C456.15 61.1426 456.177 61.5649 456.23 61.9312C456.289 62.2974 456.375 62.6147 456.487 62.8833C456.599 63.147 456.736 63.3643 456.897 63.5352C457.058 63.7061 457.244 63.833 457.454 63.916C457.668 63.9941 457.905 64.0332 458.164 64.0332C458.496 64.0332 458.787 63.9697 459.036 63.8428C459.285 63.7158 459.492 63.5181 459.658 63.2495C459.829 62.9761 459.956 62.627 460.039 62.2021C460.122 61.7725 460.164 61.2598 460.164 60.6641ZM469.963 58.8184V60.4443C469.963 61.3184 469.885 62.0557 469.729 62.6562C469.573 63.2568 469.348 63.7402 469.055 64.1064C468.762 64.4727 468.408 64.7388 467.993 64.9048C467.583 65.0659 467.119 65.1465 466.602 65.1465C466.191 65.1465 465.813 65.0952 465.466 64.9927C465.12 64.8901 464.807 64.7266 464.529 64.502C464.255 64.2725 464.021 63.9746 463.826 63.6084C463.63 63.2422 463.481 62.7979 463.379 62.2754C463.276 61.7529 463.225 61.1426 463.225 60.4443V58.8184C463.225 57.9443 463.303 57.2119 463.459 56.6211C463.621 56.0303 463.848 55.5566 464.141 55.2002C464.434 54.8389 464.785 54.5801 465.195 54.4238C465.61 54.2676 466.074 54.1895 466.587 54.1895C467.002 54.1895 467.383 54.2407 467.729 54.3433C468.081 54.4409 468.394 54.5996 468.667 54.8193C468.94 55.0342 469.172 55.3223 469.363 55.6836C469.558 56.04 469.707 56.4771 469.81 56.9946C469.912 57.5122 469.963 58.1201 469.963 58.8184ZM468.601 60.6641V58.5913C468.601 58.1128 468.572 57.6929 468.513 57.3315C468.459 56.9653 468.379 56.6528 468.271 56.394C468.164 56.1353 468.027 55.9253 467.861 55.7642C467.7 55.603 467.512 55.4858 467.297 55.4126C467.087 55.3345 466.851 55.2954 466.587 55.2954C466.265 55.2954 465.979 55.3564 465.73 55.4785C465.481 55.5957 465.271 55.7837 465.1 56.0425C464.934 56.3013 464.807 56.6406 464.719 57.0605C464.631 57.4805 464.587 57.9907 464.587 58.5913V60.6641C464.587 61.1426 464.614 61.5649 464.668 61.9312C464.727 62.2974 464.812 62.6147 464.924 62.8833C465.037 63.147 465.173 63.3643 465.334 63.5352C465.496 63.7061 465.681 63.833 465.891 63.916C466.106 63.9941 466.343 64.0332 466.602 64.0332C466.934 64.0332 467.224 63.9697 467.473 63.8428C467.722 63.7158 467.93 63.5181 468.096 63.2495C468.267 62.9761 468.394 62.627 468.477 62.2021C468.56 61.7725 468.601 61.2598 468.601 60.6641ZM473.42 59.9243L472.336 59.646L472.871 54.3359H478.342V55.5884H474.021L473.699 58.4888C473.894 58.3765 474.141 58.2715 474.438 58.1738C474.741 58.0762 475.088 58.0273 475.479 58.0273C475.972 58.0273 476.414 58.1128 476.804 58.2837C477.195 58.4497 477.527 58.689 477.8 59.0015C478.079 59.314 478.291 59.6899 478.438 60.1294C478.584 60.5688 478.657 61.0596 478.657 61.6016C478.657 62.1143 478.586 62.5854 478.445 63.0151C478.308 63.4448 478.101 63.8208 477.822 64.1431C477.544 64.4604 477.192 64.707 476.768 64.8828C476.348 65.0586 475.852 65.1465 475.281 65.1465C474.851 65.1465 474.443 65.0879 474.058 64.9707C473.677 64.8486 473.335 64.6655 473.032 64.4214C472.734 64.1724 472.49 63.8647 472.3 63.4985C472.114 63.1274 471.997 62.6929 471.948 62.1948H473.237C473.296 62.5952 473.413 62.9321 473.589 63.2056C473.765 63.479 473.994 63.6865 474.277 63.8281C474.565 63.9648 474.9 64.0332 475.281 64.0332C475.603 64.0332 475.889 63.9771 476.138 63.8647C476.387 63.7524 476.597 63.5913 476.768 63.3813C476.938 63.1714 477.068 62.9175 477.156 62.6196C477.249 62.3218 477.295 61.9873 477.295 61.6162C477.295 61.2793 477.249 60.9668 477.156 60.6787C477.063 60.3906 476.924 60.1392 476.738 59.9243C476.558 59.7095 476.335 59.5435 476.072 59.4263C475.808 59.3042 475.505 59.2432 475.164 59.2432C474.709 59.2432 474.365 59.3042 474.131 59.4263C473.901 59.5483 473.665 59.7144 473.42 59.9243Z" fill="#939597"/>
<path d="M0.5 93C0.5 95.4853 2.51472 97.5 5 97.5H959C961.485 97.5 963.5 95.4853 963.5 93V5C963.5 2.51472 961.485 0.5 959 0.5H5.00001C2.51473 0.5 0.5 2.51472 0.5 5V93Z" stroke="#CCCCCC"/>
</svg>
