<svg width="150" height="24" viewBox="0 0 150 24" fill="none" xmlns="http://www.w3.org/2000/svg">
<g clip-path="url(#clip0_12_66)">
<path d="M23.1805 1.49158V5.96138H29.9773V22.7494H34.7883V5.96138H41.6069V1.49158H23.1805Z" fill="white"/>
<path d="M102.506 1.49158H90.3692V6.00082H102.178C103.928 6.00082 104.588 6.79399 104.588 8.82731V9.57665H94.8041C91.0821 9.57665 89.2277 11.4435 89.2277 15.6635V16.6757C89.2277 21.0097 91.1477 22.7538 95.0053 22.7538H109.364V8.78787C109.364 3.41534 107.593 1.49158 102.506 1.49158ZM95.5083 18.2051C94.7779 18.2051 93.96 17.8326 93.96 16.014C93.96 14.1954 94.7691 13.8712 95.5083 13.8712H104.597V18.2095L95.5083 18.2051Z" fill="white"/>
<path d="M142.525 1.49158H130.388V6.00082H142.197C143.947 6.00082 144.607 6.79399 144.607 8.82731V9.57665H134.823C131.101 9.57665 129.247 11.4435 129.247 15.6635V16.6757C129.247 21.0097 131.167 22.7538 135.029 22.7538H149.388V8.78787C149.388 3.41534 147.621 1.49158 142.525 1.49158ZM135.527 18.2051C134.797 18.2051 133.979 17.8326 133.979 16.014C133.979 14.1954 134.788 13.8712 135.527 13.8712H144.616V18.2095L135.527 18.2051Z" fill="white"/>
<path d="M43.1377 1.49158V5.96138H49.9432V22.7494H54.7542V5.96138H61.5597V1.49158H43.1377Z" fill="white"/>
<path d="M110.335 1.49158V5.96138H117.141V22.7494H121.952V5.96138H128.757V1.49158H110.335Z" fill="white"/>
<path d="M87.36 15.2997V8.93685C87.36 3.36713 85.2038 1.48718 80.3402 1.48718H67.4335V22.7406H80.5545C85.7242 22.745 87.36 20.1815 87.36 15.2997ZM82.4352 15.3918C82.4352 17.4295 81.7529 18.2226 80.021 18.2226H72.2577V6.01833H80.0384C81.7879 6.01833 82.4527 6.8115 82.4527 8.84482L82.4352 15.3918Z" fill="white"/>
<path d="M16.3707 17.6837C16.2701 17.4909 9.81017 4.91411 9.0404 3.66081C8.13505 2.24537 7.02851 1.255 4.90727 1.255C2.94348 1.255 0.612305 2.12705 0.612305 6.85978V22.7582H5.3665V9.49784C5.3665 8.54691 5.30527 7.13586 5.29215 6.86855C5.27903 6.60123 5.29215 6.43033 5.41024 6.34269C5.52833 6.25504 5.68578 6.39089 5.77763 6.57056C5.86948 6.75023 11.8396 18.5689 13.1211 20.5628C14.0308 21.9957 15.1373 22.9861 17.2542 22.9861C19.2223 22.9861 21.5535 22.1097 21.5535 17.377V1.48288H16.7862V14.7433C16.7862 15.6942 16.8431 17.1053 16.8562 17.3726C16.8693 17.6399 16.8562 17.8108 16.7381 17.8984C16.62 17.9861 16.4669 17.859 16.3707 17.6837Z" fill="white"/>
</g>
<defs>
<clipPath id="clip0_12_66">
<rect width="150" height="22.2" fill="white" transform="translate(0 0.900024)"/>
</clipPath>
</defs>
</svg>
