<svg width="42" height="52" viewBox="0 0 42 52" fill="none" xmlns="http://www.w3.org/2000/svg">
<path d="M21 0.374878C15.5984 0.374608 10.415 2.50626 6.57631 6.30653C2.73765 10.1068 0.554016 15.2685 0.5 20.6699C0.5 34.7124 18.5656 50.3436 19.3344 51.0099C19.7985 51.4069 20.3892 51.625 21 51.625C21.6108 51.625 22.2015 51.4069 22.6656 51.0099C23.5625 50.3436 41.5 34.7124 41.5 20.6699C41.446 15.2685 39.2623 10.1068 35.4237 6.30653C31.585 2.50626 26.4016 0.374608 21 0.374878ZM21 28.5624C19.2261 28.5624 17.4921 28.0364 16.0172 27.0509C14.5423 26.0654 13.3928 24.6646 12.714 23.0258C12.0351 21.387 11.8575 19.5837 12.2036 17.8439C12.5496 16.1041 13.4038 14.5061 14.6581 13.2518C15.9124 11.9975 17.5105 11.1433 19.2503 10.7972C20.99 10.4511 22.7934 10.6288 24.4322 11.3076C26.071 11.9864 27.4717 13.136 28.4572 14.6109C29.4427 16.0858 29.9688 17.8198 29.9688 19.5936C29.9688 21.9723 29.0238 24.2535 27.3419 25.9355C25.6599 27.6175 23.3787 28.5624 21 28.5624Z" fill="#6785C1" fill-opacity="0.75"/>
</svg>
