<svg width="24" height="24" viewBox="0 0 24 24" fill="none" xmlns="http://www.w3.org/2000/svg">
<path d="M12 15L17.19 12L12 9V15ZM23.56 7.17C23.69 7.64 23.78 8.27 23.84 9.07C23.91 9.87 23.94 10.56 23.94 11.16L24 12C24 14.19 23.84 15.8 23.56 16.83C23.31 17.73 22.73 18.31 21.83 18.56C21.36 18.69 20.5 18.78 19.18 18.84C17.88 18.91 16.69 18.94 15.59 18.94L14 19C9.81 19 7.2 18.84 6.17 18.56C5.27 18.31 4.69 17.73 4.44 16.83C4.31 16.36 4.22 15.73 4.16 14.93C4.09 14.13 4.06 13.44 4.06 12.84L4 12C4 9.81 4.16 8.2 4.44 7.17C4.69 6.27 5.27 5.69 6.17 5.44C6.64 5.31 7.5 5.22 8.82 5.16C10.12 5.09 11.31 5.06 12.41 5.06L14 5C18.19 5 20.8 5.16 21.83 5.44C22.73 5.69 23.31 6.27 23.56 7.17Z" fill="white"/>
</svg>
